<?xml version="1.0" encoding="UTF-8" standalone="no"?>
<!DOCTYPE svg PUBLIC "-//W3C//DTD SVG 1.1//EN" "http://www.w3.org/Graphics/SVG/1.1/DTD/svg11.dtd">
<svg width="100%" height="100%" viewBox="0 0 2000 2000" version="1.1" xmlns="http://www.w3.org/2000/svg" xmlns:xlink="http://www.w3.org/1999/xlink" xml:space="preserve" xmlns:serif="http://www.serif.com/" style="fill-rule:evenodd;clip-rule:evenodd;stroke-linecap:round;stroke-linejoin:round;stroke-miterlimit:1.5;">
    <rect x="0" y="0" width="2000" height="2000" style="fill:rgb(156,205,255);"/>
    <g transform="matrix(1.08419,0,0,1.21605,-52.7546,-233.1)">
        <g transform="matrix(0.639935,0.369467,-0.732434,0.422871,1454.85,245.629)">
            <path d="M205.62,1540.89C205.62,1540.89 376.78,1692.94 592.969,1879.16L1093.73,1847.75C1228.04,1847.75 1362.08,1748.79 1362.08,1613.28L1398.04,1175.77C1243.1,1040.4 1010.89,837.334 1010.89,837.334" style="fill:rgb(59,150,243);stroke:black;stroke-width:124.09px;"/>
        </g>
        <g>
            <path d="M1602.81,915.893L1602.81,1316.6" style="fill:none;stroke:black;stroke-width:60.76px;"/>
            <g transform="matrix(1,0,0,1.05746,-3.04312e-13,-152.634)">
                <path d="M1602.81,1373.84L1545.57,1516.95L1602.81,1660.06L1660.06,1516.95L1602.81,1373.84Z" style="fill:rgb(59,150,243);stroke:black;stroke-width:42.04px;"/>
            </g>
        </g>
        <g>
            <g transform="matrix(0.616173,0.355747,-0.70669,0.408008,1438.42,54.5593)">
                <path d="M1344,939.222C1344,895.582 1306.89,869.072 1263.55,869.072L396.763,923.333C353.418,923.333 303.861,960.695 303.861,1004.34C303.861,1004.34 241.649,1759.86 241.629,1760.09C241.629,1760.09 241.629,1760.1 241.629,1760.1C241.629,1803.73 278.74,1830.24 322.084,1830.24L1188.87,1775.98C1232.21,1775.98 1281.77,1738.62 1281.77,1694.98L1344,939.222Z" style="fill:rgb(59,150,243);stroke:black;stroke-width:128.71px;"/>
            </g>
            <g>
                <g transform="matrix(1,0,0,1,-57.2433,28.6217)">
                    <path d="M400.703,715.542L587.514,808.947" style="fill:none;stroke:black;stroke-width:60.76px;"/>
                </g>
                <g transform="matrix(1,0,0,1,-56.8596,28.8136)">
                    <path d="M744.163,543.812L930.591,637.025" style="fill:none;stroke:black;stroke-width:60.76px;"/>
                </g>
            </g>
            <g>
                <g transform="matrix(1.55002,-0.755995,1.44534,0.768498,-1675.85,745.9)">
                    <path d="M763.372,877.859C763.372,867.363 756.38,858.842 747.767,858.842L702.91,858.842C694.297,858.842 687.304,867.363 687.304,877.859L687.304,915.893C687.304,926.389 694.297,934.911 702.91,934.911L747.767,934.911C756.38,934.911 763.372,926.389 763.372,915.893L763.372,877.859Z" style="fill:rgb(156,205,255);stroke:black;stroke-width:19.6px;"/>
                </g>
                <g transform="matrix(1.55002,-0.755995,1.44534,0.768498,-1405.28,610.727)">
                    <path d="M763.372,877.859C763.372,867.363 756.38,858.842 747.767,858.842L702.91,858.842C694.297,858.842 687.304,867.363 687.304,877.859L687.304,915.893C687.304,926.389 694.297,934.911 702.91,934.911L747.767,934.911C756.38,934.911 763.372,926.389 763.372,915.893L763.372,877.859Z" style="fill:rgb(156,205,255);stroke:black;stroke-width:19.6px;"/>
                </g>
                <g transform="matrix(1.55002,-0.755995,1.44534,0.768498,-1447.44,862.739)">
                    <path d="M763.372,877.859C763.372,867.363 756.38,858.842 747.767,858.842L702.91,858.842C694.297,858.842 687.304,867.363 687.304,877.859L687.304,915.893C687.304,926.389 694.297,934.911 702.91,934.911L747.767,934.911C756.38,934.911 763.372,926.389 763.372,915.893L763.372,877.859Z" style="fill:rgb(156,205,255);stroke:black;stroke-width:19.6px;"/>
                </g>
                <g transform="matrix(1.55002,-0.755995,1.44534,0.768498,-1176.86,727.566)">
                    <path d="M763.372,877.859C763.372,867.363 756.38,858.842 747.767,858.842L702.91,858.842C694.297,858.842 687.304,867.363 687.304,877.859L687.304,915.893C687.304,926.389 694.297,934.911 702.91,934.911L747.767,934.911C756.38,934.911 763.372,926.389 763.372,915.893L763.372,877.859Z" style="fill:rgb(156,205,255);stroke:black;stroke-width:19.6px;"/>
                </g>
            </g>
        </g>
    </g>
</svg>
